<?xml version="1.0" standalone="no"?>
<!DOCTYPE svg PUBLIC "-//W3C//DTD SVG 20010904//EN"
 "http://www.w3.org/TR/2001/REC-SVG-20010904/DTD/svg10.dtd">
<svg version="1.0" xmlns="http://www.w3.org/2000/svg"
 width="225.000000pt" height="136.000000pt" viewBox="0 0 225.000000 136.000000"
 preserveAspectRatio="xMidYMid meet">

<g transform="translate(0.000000,136.000000) scale(0.100000,-0.100000)"
fill="#000000" stroke="none">
<path d="M972 1180 c-111 -56 -166 -145 -167 -270 0 -92 27 -154 92 -217 l44
-42 53 19 c107 36 176 86 176 126 0 18 -65 90 -99 110 -32 19 -70 74 -77 113
-13 61 48 126 148 162 53 18 38 29 -41 29 -56 0 -79 -6 -129 -30z"/>
<path d="M1181 1140 c-65 -24 -116 -57 -132 -87 -10 -18 -8 -28 11 -57 12 -20
25 -36 30 -36 4 0 33 -25 63 -55 109 -107 83 -193 -79 -259 -57 -23 -58 -25
-31 -31 52 -13 142 1 198 31 64 35 134 117 150 176 15 57 7 174 -15 218 -26
50 -96 120 -121 120 -11 -1 -44 -9 -74 -20z"/>
<path d="M598 268 c-57 -19 -44 -76 22 -98 48 -16 56 -25 39 -46 -13 -16 -45
-15 -83 1 -14 6 -17 4 -14 -10 5 -29 65 -40 105 -21 55 26 38 84 -29 101 -15
4 -32 13 -38 20 -17 21 20 37 59 25 28 -8 32 -7 29 8 -4 20 -54 32 -90 20z"/>
<path d="M970 270 c-12 -7 -12 -12 -2 -22 9 -9 15 -9 24 0 16 16 -2 34 -22 22z"/>
<path d="M1563 258 c2 -7 10 -13 17 -13 7 0 15 6 18 13 2 7 -5 12 -18 12 -13
0 -20 -5 -17 -12z"/>
<path d="M743 155 c24 -75 50 -88 65 -32 10 39 24 39 36 -2 12 -42 42 -41 55
2 5 17 14 47 20 65 14 46 -14 44 -29 -3 -6 -19 -15 -35 -20 -35 -5 0 -14 16
-20 35 -15 47 -34 44 -50 -7 l-13 -43 -13 30 c-7 17 -13 36 -14 43 0 6 -9 12
-19 12 -19 0 -19 -2 2 -65z"/>
<path d="M960 155 c0 -51 3 -65 15 -65 12 0 15 14 15 65 0 51 -3 65 -15 65
-12 0 -15 -14 -15 -65z"/>
<path d="M1040 124 c0 -86 2 -95 18 -92 17 3 18 7 21 48 1 16 5 18 24 11 26
-10 48 -4 65 17 18 23 15 76 -6 95 -21 19 -58 22 -68 6 -4 -8 -9 -8 -17 0 -29
29 -37 12 -37 -85z m98 54 c28 -28 1 -75 -38 -63 -14 4 -20 15 -20 34 0 15 3
31 7 34 10 11 38 8 51 -5z"/>
<path d="M1238 207 c-9 -7 -20 -25 -23 -39 -13 -51 31 -92 88 -81 40 8 34 30
-6 25 -22 -2 -38 2 -46 12 -12 14 -8 16 32 16 54 0 63 10 45 47 -15 32 -61 42
-90 20z m62 -32 c0 -9 -9 -15 -25 -15 -16 0 -25 6 -25 15 0 9 9 15 25 15 16 0
25 -6 25 -15z"/>
<path d="M1380 155 c0 -50 3 -65 14 -65 10 0 16 14 18 43 2 32 8 44 26 52 12
5 22 15 22 22 0 16 -12 17 -29 1 -11 -10 -14 -10 -18 0 -3 6 -11 12 -19 12
-11 0 -14 -16 -14 -65z"/>
<path d="M1560 141 c0 -75 -1 -81 -21 -81 -26 0 -20 -24 8 -28 33 -5 44 22 46
105 2 67 0 78 -15 81 -16 3 -18 -6 -18 -77z"/>
<path d="M1652 208 c-23 -23 -13 -48 23 -64 19 -8 35 -19 35 -25 0 -7 -14 -10
-35 -7 -24 3 -35 0 -35 -9 0 -22 76 -21 98 1 19 19 4 44 -34 56 -19 6 -34 15
-34 20 0 12 26 19 49 13 12 -3 21 -1 21 5 0 22 -68 30 -88 10z"/>
<path d="M1477 113 c-13 -12 -7 -23 13 -23 11 0 20 7 20 15 0 15 -21 21 -33 8z"/>
</g>
</svg>
